<?xml version="1.0" encoding="utf-8"?>
<!-- Generator: Adobe Illustrator 22.0.0, SVG Export Plug-In . SVG Version: 6.00 Build 0)  -->
<svg version="1.1" id="Capa_1" xmlns="http://www.w3.org/2000/svg" xmlns:xlink="http://www.w3.org/1999/xlink" x="0px" y="0px"
	 viewBox="-99 268.3 562 257.3" style="enable-background:new -99 268.3 562 257.3;" xml:space="preserve">
<style type="text/css">
	.st0{fill:#FFFFFF;}
</style>
<g>
	<path class="st0" d="M459.6,388.7L343.3,272.4c-4.2-4.9-11.5-5.4-16.4-1.3c-4.9,4.2-5.4,11.5-1.3,16.4c0.4,0.5,0.8,0.9,1.3,1.3
		l96.5,96.6H-87.4c-6.4,0-11.6,5.2-11.6,11.6c0,6.4,5.2,11.6,11.6,11.6h510.7l-96.5,96.5c-4.9,4.2-5.4,11.5-1.3,16.4
		c4.2,4.9,11.5,5.4,16.4,1.3c0.5-0.4,0.9-0.8,1.3-1.3l116.4-116.4C464.1,400.6,464.1,393.3,459.6,388.7L459.6,388.7z"/>
</g>
</svg>
