<?xml version="1.0" encoding="utf-8"?>
<!-- Generator: Adobe Illustrator 22.0.0, SVG Export Plug-In . SVG Version: 6.00 Build 0)  -->
<svg version="1.1" id="Capa_1" xmlns="http://www.w3.org/2000/svg" xmlns:xlink="http://www.w3.org/1999/xlink" x="0px" y="0px"
	 viewBox="-49 141 512 512" style="enable-background:new -49 141 512 512;" xml:space="preserve">
<style type="text/css">
	.st0{fill:#30B2F2;}
</style>
<path class="st0" d="M360.6,460.3c-16.1,0-29.1-13.1-29.1-29.1c0-16.1,13.1-29.1,29.1-29.1c16.1,0,29.1,13.1,29.1,29.1
	C389.7,447.2,376.7,460.3,360.6,460.3z M360.6,409.1c-12.2,0-22.1,9.9-22.1,22.1c0,12.2,9.9,22.1,22.1,22.1
	c12.2,0,22.1-9.9,22.1-22.1C382.7,419,372.8,409.1,360.6,409.1z"/>
<path class="st0" d="M360.6,545.6c-15.5,0-30.9-4.1-44.4-12c-1.1-0.6-1.8-1.8-1.8-3.1v-22.5c0-11.4,9.6-20.7,21.4-20.7h49.5
	c11.8,0,21.4,9.3,21.4,20.7v22.5c0,1.3-0.7,2.4-1.8,3.1C391.5,541.5,376.1,545.6,360.6,545.6z M335.8,494.4
	c-7.9,0-14.4,6.1-14.4,13.7v20.5l2.8,1.4c11.1,5.5,23.7,8.5,36.4,8.5c12.7,0,25.3-2.9,36.4-8.5l2.8-1.4v-20.5
	c0-7.5-6.5-13.7-14.4-13.7H335.8z"/>
<path class="st0" d="M155.8,562.7c-16.1,0-29.1-13.1-29.1-29.1c0-16.1,13.1-29.1,29.1-29.1s29.1,13.1,29.1,29.1
	C184.9,549.6,171.9,562.7,155.8,562.7z M155.8,511.5c-12.2,0-22.1,9.9-22.1,22.1s9.9,22.1,22.1,22.1s22.1-9.9,22.1-22.1
	S168,511.5,155.8,511.5z"/>
<path class="st0" d="M428.9,306.7c-16.1,0-29.1-13.1-29.1-29.1s13.1-29.1,29.1-29.1c16.1,0,29.1,13.1,29.1,29.1
	S444.9,306.7,428.9,306.7z M428.9,255.5c-12.2,0-22.1,9.9-22.1,22.1s9.9,22.1,22.1,22.1c12.2,0,22.1-9.9,22.1-22.1
	S441,255.5,428.9,255.5z"/>
<path class="st0" d="M-14.9,588.3c-16.1,0-29.1-13.1-29.1-29.1c0-16.1,13.1-29.1,29.1-29.1s29.1,13.1,29.1,29.1
	C14.3,575.2,1.2,588.3-14.9,588.3z M-14.9,537.1c-12.2,0-22.1,9.9-22.1,22.1c0,12.2,9.9,22.1,22.1,22.1s22.1-9.9,22.1-22.1
	C7.2,547-2.7,537.1-14.9,537.1z"/>
<path class="st0" d="M408.6,265.4c-0.5,0-1-0.1-1.5-0.4l-73.6-35.5c-0.8-0.4-1.5-1.1-1.8-2c-0.3-0.9-0.3-1.8,0.2-2.7
	c0.6-1.2,1.8-2,3.2-2c0.5,0,1,0.1,1.5,0.4l73.6,35.5c1.8,0.8,2.5,3,1.6,4.7C411.2,264.6,410,265.4,408.6,265.4z"/>
<path class="st0" d="M335,648c-16.1,0-29.1-13.1-29.1-29.1c0-16.1,13.1-29.1,29.1-29.1s29.1,13.1,29.1,29.1
	C364.1,634.9,351.1,648,335,648z M335,596.8c-12.2,0-22.1,9.9-22.1,22.1c0,12.2,9.9,22.1,22.1,22.1s22.1-9.9,22.1-22.1
	C357.1,606.7,347.2,596.8,335,596.8z"/>
<path class="st0" d="M314.7,606.7c-0.5,0-1-0.1-1.5-0.4l-73.6-35.5c-0.8-0.4-1.5-1.1-1.8-2c-0.3-0.9-0.3-1.8,0.2-2.7
	c0.6-1.2,1.8-2,3.2-2c0.5,0,1,0.1,1.5,0.4l73.6,35.5c0.8,0.4,1.5,1.1,1.8,2c0.3,0.9,0.3,1.8-0.2,2.7
	C317.3,606,316.1,606.7,314.7,606.7z"/>
<path class="st0" d="M207,434.7c-16.1,0-29.1-13.1-29.1-29.1c0-16.1,13.1-29.1,29.1-29.1c16.1,0,29.1,13.1,29.1,29.1
	C236.1,421.6,223.1,434.7,207,434.7z M207,383.5c-12.2,0-22.1,9.9-22.1,22.1c0,12.2,9.9,22.1,22.1,22.1c12.2,0,22.1-9.9,22.1-22.1
	C229.1,393.4,219.2,383.5,207,383.5z"/>
<path class="st0" d="M186.7,393.4c-0.8,0-1.5-0.3-2.2-0.8L128,348.6c-1.5-1.2-1.8-3.4-0.6-5c0.7-0.9,1.7-1.3,2.8-1.3
	c0.8,0,1.6,0.3,2.2,0.8l56.5,44.1c1.5,1.2,1.8,3.4,0.6,5C188.9,392.9,187.8,393.4,186.7,393.4z"/>
<path class="st0" d="M360.6,545.6c-49,0-88.9-39.9-88.9-88.9s39.9-88.9,88.9-88.9c49,0,88.9,39.9,88.9,88.9S409.6,545.6,360.6,545.6
	z M360.6,374.9c-45.1,0-81.8,36.7-81.8,81.8s36.7,81.8,81.8,81.8c45.1,0,81.8-36.7,81.8-81.8S405.7,374.9,360.6,374.9z"/>
<path class="st0" d="M155.8,648c-15.5,0-30.9-4.1-44.4-12c-1.1-0.6-1.8-1.8-1.8-3.1v-22.5c0-11.4,9.6-20.7,21.4-20.7h49.5
	c11.8,0,21.4,9.3,21.4,20.7V633c0,1.3-0.7,2.4-1.8,3C186.7,643.9,171.3,648,155.8,648z M131,596.8c-7.9,0-14.4,6.1-14.4,13.7V631
	l2.8,1.4c11.1,5.5,23.7,8.5,36.4,8.5c12.7,0,25.3-2.9,36.4-8.5l2.8-1.4v-20.5c0-7.5-6.4-13.7-14.4-13.7H131z"/>
<path class="st0" d="M44.9,349.3c-16.1,0-29.1-13.1-29.1-29.1s13.1-29.1,29.1-29.1S74,304.1,74,320.2S60.9,349.3,44.9,349.3z
	 M44.9,298.1c-12.2,0-22.1,9.9-22.1,22.1s9.9,22.1,22.1,22.1s22.1-9.9,22.1-22.1S57,298.1,44.9,298.1z"/>
<path class="st0" d="M155.8,648c-49,0-88.9-39.9-88.9-88.9c0-49,39.9-88.9,88.9-88.9s88.9,39.9,88.9,88.9
	C244.7,608.1,204.8,648,155.8,648z M155.8,477.3c-45.1,0-81.8,36.7-81.8,81.8c0,45.1,36.7,81.8,81.8,81.8s81.8-36.7,81.8-81.8
	C237.6,514,200.9,477.3,155.8,477.3z"/>
<path class="st0" d="M44.9,434.7c-15.5,0-30.9-4.1-44.4-12c-1.1-0.6-1.8-1.8-1.8-3.1v-22.5c0-11.4,9.6-20.7,21.4-20.7h49.5
	c11.8,0,21.4,9.3,21.4,20.7v22.5c0,1.3-0.7,2.4-1.8,3C75.8,430.5,60.4,434.7,44.9,434.7z M20.1,383.5c-7.9,0-14.4,6.1-14.4,13.7
	v20.5l2.8,1.4c11.1,5.5,23.7,8.5,36.4,8.5s25.3-2.9,36.4-8.5l2.8-1.4v-20.5c0-7.5-6.4-13.7-14.4-13.7H20.1z"/>
<path class="st0" d="M249.7,238.4c-16.1,0-29.1-13.1-29.1-29.1s13.1-29.1,29.1-29.1c16.1,0,29.1,13.1,29.1,29.1
	S265.7,238.4,249.7,238.4z M249.7,187.2c-12.2,0-22.1,9.9-22.1,22.1s9.9,22.1,22.1,22.1c12.2,0,22.1-9.9,22.1-22.1
	S261.8,187.2,249.7,187.2z"/>
<path class="st0" d="M44.9,434.7c-49,0-88.9-39.9-88.9-88.9s39.9-88.9,88.9-88.9s88.9,39.9,88.9,88.9S93.9,434.7,44.9,434.7z
	 M44.9,264c-45.1,0-81.8,36.7-81.8,81.8s36.7,81.8,81.8,81.8s81.8-36.7,81.8-81.8S90,264,44.9,264z"/>
<path class="st0" d="M249.7,323.7c-15.5,0-30.9-4.1-44.4-12c-1.1-0.6-1.8-1.8-1.8-3.1v-22.5c0-11.4,9.6-20.7,21.4-20.7h49.5
	c11.8,0,21.4,9.3,21.4,20.7v22.5c0,1.3-0.7,2.4-1.8,3C280.6,319.6,265.2,323.7,249.7,323.7z M224.9,272.5c-7.9,0-14.4,6.1-14.4,13.7
	v20.5l2.8,1.4c11.1,5.5,23.7,8.5,36.4,8.5c12.7,0,25.3-2.9,36.4-8.5l2.8-1.4v-20.5c0-7.5-6.5-13.7-14.4-13.7H224.9z"/>
<path class="st0" d="M249.7,323.7c-49,0-88.9-39.9-88.9-88.9s39.9-88.9,88.9-88.9c49,0,88.9,39.9,88.9,88.9S298.7,323.7,249.7,323.7
	z M249.7,153.1c-45.1,0-81.8,36.7-81.8,81.8s36.7,81.8,81.8,81.8c45.1,0,81.8-36.7,81.8-81.8S294.8,153.1,249.7,153.1z"/>
<path class="st0" d="M105.2,289c-1,0-2-0.5-2.7-1.2c-0.6-0.7-0.9-1.6-0.8-2.6c0.1-0.9,0.5-1.8,1.2-2.4l59.1-50.6
	c0.6-0.5,1.5-0.8,2.3-0.8c1,0,2,0.5,2.7,1.2c1.3,1.5,1.1,3.7-0.4,5l-59.1,50.6C106.9,288.7,106,289,105.2,289z"/>
<path class="st0" d="M352.1,374.9c-1.1,0-2.2-0.5-2.8-1.4L298,305.3c-0.6-0.8-0.8-1.7-0.7-2.6c0.1-0.9,0.6-1.8,1.4-2.3
	c0.6-0.5,1.4-0.7,2.1-0.7c1.1,0,2.2,0.5,2.8,1.4l51.2,68.3c0.6,0.8,0.8,1.7,0.7,2.6c-0.1,0.9-0.6,1.8-1.4,2.3
	C353.6,374.7,352.8,374.9,352.1,374.9z"/>
<path class="st0" d="M234.4,529.3c-1.1,0-2.2-0.5-2.8-1.4c-0.6-0.8-0.8-1.7-0.7-2.6c0.1-0.9,0.6-1.8,1.4-2.3l47.7-35.7
	c0.6-0.5,1.3-0.7,2.1-0.7c1.1,0,2.2,0.5,2.8,1.4c0.6,0.8,0.8,1.7,0.7,2.6c-0.1,0.9-0.6,1.8-1.4,2.3l-47.7,35.7
	C235.9,529.1,235.1,529.3,234.4,529.3z"/>
<path class="st0" d="M10.7,562.7c-1.9,0-3.5-1.6-3.5-3.5c0-1.9,1.6-3.5,3.5-3.5h59.7c1.9,0,3.5,1.6,3.5,3.5c0,1.9-1.6,3.5-3.5,3.5
	H10.7z"/>
<path class="st0" d="M44.9,204.3c-16.1,0-29.1-13.1-29.1-29.1S28.8,146,44.9,146S74,159.1,74,175.1S60.9,204.3,44.9,204.3z
	 M44.9,153.1c-12.2,0-22.1,9.9-22.1,22.1s9.9,22.1,22.1,22.1s22.1-9.9,22.1-22.1S57,153.1,44.9,153.1z"/>
<path class="st0" d="M44.9,264c-1.9,0-3.5-1.6-3.5-3.5v-59.7c0-1.9,1.6-3.5,3.5-3.5s3.5,1.6,3.5,3.5v59.7
	C48.4,262.4,46.8,264,44.9,264z"/>
</svg>
