<?xml version="1.0" encoding="utf-8"?>
<!-- Generator: Adobe Illustrator 22.0.0, SVG Export Plug-In . SVG Version: 6.00 Build 0)  -->
<svg version="1.1" xmlns="http://www.w3.org/2000/svg" xmlns:xlink="http://www.w3.org/1999/xlink" x="0px" y="0px"
	 viewBox="0 0 504 397" style="enable-background:new 0 0 504 397;" xml:space="preserve">
<style type="text/css">
	.st0{fill:#30B2F2;}
</style>
<g id="Layer_2">
</g>
<g id="Layer_1">
	<g>
		<path class="st0" d="M54,62c-10.2,0-18.5-8.3-18.5-18.5S43.8,25,54,25s18.5,8.3,18.5,18.5S64.2,62,54,62z M54,32
			c-6.3,0-11.5,5.2-11.5,11.5S47.7,55,54,55s11.5-5.2,11.5-11.5S60.3,32,54,32z"/>
		<path class="st0" d="M106,62c-10.2,0-18.5-8.3-18.5-18.5S95.8,25,106,25s18.5,8.3,18.5,18.5S116.2,62,106,62z M106,32
			c-6.3,0-11.5,5.2-11.5,11.5S99.7,55,106,55s11.5-5.2,11.5-11.5S112.3,32,106,32z"/>
		<path class="st0" d="M158,62c-10.2,0-18.5-8.3-18.5-18.5S147.8,25,158,25s18.5,8.3,18.5,18.5S168.2,62,158,62z M158,32
			c-6.3,0-11.5,5.2-11.5,11.5S151.7,55,158,55s11.5-5.2,11.5-11.5S164.3,32,158,32z"/>
		<path class="st0" d="M146,350c-61.5,0-111.5-50-111.5-111.5S84.5,127,146,127s111.5,50,111.5,111.5c0,21.5-6.1,42.4-17.7,60.3
			C219.1,330.9,184.1,350,146,350z M138.2,134.3c-54.2,4-96.7,49.8-96.7,104.2C41.5,296.1,88.4,343,146,343
			c33.1,0,63.5-15.1,83.4-41.6l2.6-3.4l-87.9-56.5c-0.2-0.1-0.3-0.2-0.4-0.3c0,0-0.2-0.2-0.3-0.3l-0.2-0.3l-0.2-0.2
			c0,0-0.2-0.3-0.2-0.3c0-0.1-0.1-0.2-0.1-0.3l-0.1-0.2l0-0.1v-0.2l-0.1-0.3l0-0.2l0-0.5l0-104.4L138.2,134.3z M235.8,292.1l2.1-3.8
			c7.1-13,11.2-27.2,12.3-42l0.3-4.3h-92.6L235.8,292.1z M149.5,235h101l-0.3-4.3c-3.8-51.2-45.2-92.6-96.4-96.4l-4.3-0.3V235z"/>
		<path class="st0" d="M306.5,340c-4.1,0-7.5-3.4-7.5-7.5v-178c0-4.1,3.4-7.5,7.5-7.5h32c4.1,0,7.5,3.4,7.5,7.5v178
			c0,4.1-3.4,7.5-7.5,7.5H306.5z M306,333h33V154h-33V333z"/>
		<path class="st0" d="M370.5,340c-4.1,0-7.5-3.4-7.5-7.5V209.3c0-4.1,3.4-7.5,7.5-7.5h32c4.1,0,7.5,3.4,7.5,7.5v123.2
			c0,4.1-3.4,7.5-7.5,7.5H370.5z M370,333h33V208.8h-33V333z"/>
		<path class="st0" d="M434.5,340c-4.1,0-7.5-3.4-7.5-7.5V184.2c0-4.1,3.4-7.5,7.5-7.5h32c4.1,0,7.5,3.4,7.5,7.5v148.3
			c0,4.1-3.4,7.5-7.5,7.5H434.5z M434,333h33V183.7h-33V333z"/>
		<path class="st0" d="M3.5,397c-1.9,0-3.5-1.6-3.5-3.5V367c0-1.9,1.6-3.5,3.5-3.5S7,365.1,7,367v23h490V143c0-1.9,1.6-3.5,3.5-3.5
			s3.5,1.6,3.5,3.5v250.5c0,1.9-1.6,3.5-3.5,3.5H3.5z"/>
		<path class="st0" d="M3.5,338.5c-1.9,0-3.5-1.6-3.5-3.5V3.5C0,1.6,1.6,0,3.5,0h497c1.9,0,3.5,1.6,3.5,3.5V111
			c0,1.9-1.6,3.5-3.5,3.5s-3.5-1.6-3.5-3.5V87H92.5c-1.9,0-3.5-1.6-3.5-3.5s1.6-3.5,3.5-3.5H497V7H7v73h52.5c1.9,0,3.5,1.6,3.5,3.5
			S61.4,87,59.5,87H7v248C7,336.9,5.4,338.5,3.5,338.5z"/>
	</g>
</g>
</svg>
