<?xml version="1.0" encoding="utf-8"?>
<!-- Generator: Adobe Illustrator 22.0.0, SVG Export Plug-In . SVG Version: 6.00 Build 0)  -->
<svg version="1.1" id="Isolation_Mode" xmlns="http://www.w3.org/2000/svg" xmlns:xlink="http://www.w3.org/1999/xlink" x="0px"
	 y="0px" viewBox="0 0 503 465.7" style="enable-background:new 0 0 503 465.7;" xml:space="preserve">
<style type="text/css">
	.st0{fill:#30B2F2;}
</style>
<g>
	<path class="st0" d="M63.7,239.6c-1.7,0-3-1.3-3-3s1.3-3,3-3h88.8c1.7,0,3,1.3,3,3s-1.3,3-3,3H63.7z"/>
	<path class="st0" d="M63.7,277c-1.7,0-3-1.3-3-3s1.3-3,3-3h88.8c1.7,0,3,1.3,3,3s-1.3,3-3,3H63.7z"/>
	<path class="st0" d="M63.7,314.4c-1.7,0-3-1.3-3-3s1.3-3,3-3h153.2c1.7,0,3,1.3,3,3s-1.3,3-3,3H63.7z"/>
	<path class="st0" d="M63.7,351.8c-1.7,0-3-1.3-3-3s1.3-3,3-3h177.7c1.7,0,3,1.3,3,3s-1.3,3-3,3H63.7z"/>
	<path class="st0" d="M261.7,51c-1.7,0-3-1.3-3-3s1.3-3,3-3h177.7c1.7,0,3,1.3,3,3s-1.3,3-3,3H261.7z"/>
	<path class="st0" d="M286.9,88.4c-1.7,0-3-1.3-3-3c0-1.7,1.3-3,3-3h152.5c1.7,0,3,1.3,3,3c0,1.7-1.3,3-3,3H286.9z"/>
	<path class="st0" d="M350.5,125.8c-1.7,0-3-1.3-3-3s1.3-3,3-3h88.8c1.7,0,3,1.3,3,3s-1.3,3-3,3H350.5z"/>
	<path class="st0" d="M350.5,163.2c-1.7,0-3-1.3-3-3s1.3-3,3-3h88.8c1.7,0,3,1.3,3,3s-1.3,3-3,3H350.5z"/>
	<path class="st0" d="M251.8,251.5c-28.9,0-52.5-23.5-52.5-52.5c0-28.9,23.5-52.5,52.5-52.5c28.9,0,52.5,23.5,52.5,52.5
		C304.2,228,280.7,251.5,251.8,251.5z M251.8,152.6c-25.6,0-46.5,20.8-46.5,46.5s20.8,46.5,46.5,46.5c25.6,0,46.5-20.8,46.5-46.5
		S277.4,152.6,251.8,152.6z"/>
	<g>
		<path class="st0" d="M247.2,217.6c-1.1,0-2.1-0.4-2.8-1.2l-15.2-15.3c-0.8-0.8-1.2-1.8-1.2-2.8s0.4-2.1,1.2-2.8
			c0.8-0.8,1.8-1.2,2.8-1.2c1.1,0,2.1,0.4,2.8,1.2l12.4,12.4l23.4-23.4c0.8-0.8,1.8-1.2,2.8-1.2c1.1,0,2.1,0.4,2.8,1.2
			c0.8,0.8,1.2,1.8,1.2,2.8c0,1.1-0.4,2.1-1.2,2.8L250,216.4C249.2,217.2,248.2,217.6,247.2,217.6z"/>
		<path class="st0" d="M57.2,465.7c-4.6,0-9.3-3.4-9.3-9.2v-55.3c0-2.8-2.3-5-5-5H15.7c-8.7,0-15.7-7-15.7-15.7V204.3
			c0-8.7,7-15.7,15.7-15.7h135.4l1.3-2.3c1.6-2.8,4.5-4.5,7.6-4.5h15l0.9-3.3c1.7-6.4,4.3-12.7,7.7-18.5l1.7-3l-10.6-10.6
			c-3.4-3.4-3.4-9,0-12.4l12-12c1.6-1.6,3.8-2.5,6.2-2.5c0.1,0,0.3,0,0.4,0l4.7,0.2V15.7C198,7,205,0,213.7,0h273.6
			C496,0,503,7,503,15.7v69.7c0,1.7-1.3,3-3,3c-1.7,0-3-1.3-3-3V15.7c0-5.4-4.4-9.7-9.7-9.7H213.7c-5.3,0-9.7,4.4-9.7,9.7V127
			l5.6,5.6l3-1.7c5.8-3.3,12-5.9,18.4-7.6l3.3-0.9v-15c0-4.8,3.9-8.8,8.8-8.8h17.1c4.8,0,8.8,3.9,8.8,8.8v15l3.3,0.9
			c6.4,1.7,12.6,4.3,18.4,7.6l3,1.7l10.5-10.5c1.7-1.7,3.9-2.6,6.3-2.6c2.4,0,4.6,0.9,6.3,2.6l12,12c3.4,3.4,3.4,9,0,12.4L318.1,157
			l1.7,3c3.3,5.8,5.9,12,7.7,18.5l0.9,3.3h15c4.8,0,8.8,3.9,8.8,8.8v11h25.2c6.6,0,12.7,2.9,16.9,8l53.5,60.4l1.4-57.3
			c0-6.1,4.9-11,11-11h27.2c5.3,0,9.7-4.4,9.7-9.7v-71.4c0-1.7,1.3-3,3-3c1.7,0,3,1.3,3,3v71.4c0,8.7-7,15.7-15.7,15.7h-27.2
			c-2.8,0-5,2.3-5,5v55.3c0,5.8-4.7,9.2-9.3,9.2c-2.7,0-5.2-1.2-7-3.4l-49.3-60.3c-3-3.7-7.5-5.8-12.2-5.8h-24.7l-1.1,3
			c-1.3,3.5-4.6,5.8-8.2,5.8h-15l-0.9,3.3c-1.8,6.5-4.3,12.7-7.7,18.5l-1.7,3l10.6,10.6c1.7,1.7,2.6,3.9,2.6,6.2s-0.9,4.5-2.6,6.2
			l-12,12c-1.7,1.7-3.9,2.6-6.2,2.6c-0.2,0-0.4,0-0.6,0l-4.9-0.4l0,102.2c0,8.7-7,15.7-15.7,15.7H201c-1.7,0-3-1.3-3-3
			c0-1.7,1.3-3,3-3h88.3c5.3,0,9.7-4.4,9.7-9.7V270.8l-5.3-5.3l-3,1.7c-5.8,3.3-12,5.9-18.5,7.7l-3.3,0.9v15c0,4.8-3.9,8.8-8.8,8.8
			h-16.9c-4.8,0-8.8-3.9-8.8-8.8v-15l-3.3-0.9c-6.5-1.8-12.7-4.3-18.5-7.7l-3-1.7l-2.4,2.4c-1.3,1.3-2.5,2.5-3.6,3.6
			c-5,5.2-6.8,7.1-10.8,7.1c-2.3,0-4.5-0.9-6.2-2.6l-12-12c-3.4-3.4-3.4-9,0-12.4l10.6-10.6l-1.7-3c-3.3-5.8-5.9-12-7.7-18.5
			l-0.9-3.3h-15c-4.8,0-8.8-3.9-8.8-8.8v-12.9H15.7c-5.3,0-9.7,4.4-9.7,9.7v176.2c0,5.3,4.4,9.7,9.7,9.7h27.2c6.1,0,11,5,11,11
			l1.9,59.3l52.9-62.3c4.2-5.1,10.3-8,16.9-8H166c1.7,0,3,1.3,3,3c0,1.7-1.3,3-3,3h-40.3c-4.8,0-9.2,2.1-12.2,5.8l-49.3,60.3
			C62.4,464.5,59.9,465.7,57.2,465.7z M209.9,259.9c1.4,0,2.9,0.4,4.1,1.2c6.3,3.8,13.1,6.7,20.3,8.4c3.6,0.9,6,4,6,7.7v16.3h22.5
			v-16.3c0-3.6,2.5-6.8,6-7.7c7.2-1.8,14-4.6,20.3-8.4c1.3-0.8,2.7-1.2,4.1-1.2c1.6,0,3.2,0.5,4.5,1.4c0.6,0.4,0.6,0.4,5,4.8
			l7.6,7.6l15.9-15.9l-11.6-11.6c-2.6-2.6-3-6.6-1.1-9.7c3.8-6.3,6.7-13.1,8.4-20.3c0.9-3.6,4-6,7.7-6l16.2,0l0-5.2
			c0-0.2,0-0.3,0-0.5v-16.7h-16.3c-3.6,0-6.8-2.5-7.7-6c-1.8-7.2-4.6-14-8.4-20.3c-1.9-3.1-1.4-7.1,1.1-9.7l11.6-11.5l-15.8-15.8
			l-11.5,11.5c-1.5,1.5-3.5,2.3-5.6,2.3c-1.5,0-3-0.4-4.2-1.2c-6.3-3.8-13.1-6.7-20.3-8.4c-3.6-0.9-6-4-6-7.7v-16.3h-22.3V121
			c0,3.6-2.5,6.8-6.1,7.7c-7.2,1.7-14,4.6-20.3,8.4c-1.3,0.8-2.7,1.2-4.2,1.2c-2.1,0-4.1-0.8-5.6-2.3c-5.2-5.2-7.2-7.3-7.9-8
			l-0.3-0.3l-3.2-3.2l-15.9,15.9l11.6,11.5c2.6,2.6,3,6.6,1.1,9.7c-3.8,6.3-6.7,13.1-8.4,20.3c-0.9,3.6-4,6-7.7,6h-16.3v22.5h16.3
			c3.6,0,6.8,2.5,7.7,6c1.8,7.2,4.6,14,8.4,20.3c1.9,3.1,1.4,7.1-1.1,9.7l-11.6,11.6l15.9,15.9l11.5-11.6
			C205.9,260.7,207.8,259.9,209.9,259.9z"/>
	</g>
</g>
</svg>
