<?xml version="1.0" encoding="utf-8"?>
<!-- Generator: Adobe Illustrator 22.0.0, SVG Export Plug-In . SVG Version: 6.00 Build 0)  -->
<svg version="1.1" xmlns="http://www.w3.org/2000/svg" xmlns:xlink="http://www.w3.org/1999/xlink" x="0px" y="0px"
	 viewBox="0 0 504 504" style="enable-background:new 0 0 504 504;" xml:space="preserve">
<style type="text/css">
	.st0{fill:#30B2F2;}
</style>
<g id="Layer_2">
</g>
<g id="Isolation_Mode">
	<g>
		<path class="st0" d="M40.5,504c-1.9,0-3.5-1.6-3.5-3.5s1.6-3.5,3.5-3.5H59v-23H9.5c-5.2,0-9.5-4.3-9.5-9.5v-104
			c0-5.2,4.3-9.5,9.5-9.5h18.8c1.9,0,3.5,1.6,3.5,3.5s-1.6,3.5-3.5,3.5H7v79h171v-79H59.7c-1.9,0-3.5-1.6-3.5-3.5s1.6-3.5,3.5-3.5
			h115.8c5.2,0,9.5,4.3,9.5,9.5v104c0,5.2-4.3,9.5-9.5,9.5H126v23h18.5c1.9,0,3.5,1.6,3.5,3.5s-1.6,3.5-3.5,3.5H40.5z M66,497h53
			v-23H66V497z M7,467h171v-23H7V467z"/>
		<path class="st0" d="M359.5,504c-1.9,0-3.5-1.6-3.5-3.5s1.6-3.5,3.5-3.5H378v-23h-49.5c-5.2,0-9.5-4.3-9.5-9.5v-104
			c0-5.2,4.3-9.5,9.5-9.5h166c5.2,0,9.5,4.3,9.5,9.5v104c0,5.2-4.3,9.5-9.5,9.5H445v23h18.5c1.9,0,3.5,1.6,3.5,3.5s-1.6,3.5-3.5,3.5
			H359.5z M385,497h53v-23h-53V497z M326,467h171v-23h-21c-1.9,0-3.5-1.6-3.5-3.5s1.6-3.5,3.5-3.5h21v-79H326v79h117
			c1.9,0,3.5,1.6,3.5,3.5s-1.6,3.5-3.5,3.5H326V467z"/>
		<path class="st0" d="M252,264.6c-0.4,0-1.1-0.2-1.5-0.3l-97-46.3c-1.2-0.6-2-1.8-2-3.2V92.4c0-1.3,0.8-2.6,2-3.2l97-46.3
			c0.5-0.2,1-0.3,1.5-0.3c0.5,0,1,0.1,1.5,0.3l97,46.3c1.2,0.6,2,1.8,2,3.2v122.3c0,1.3-0.8,2.6-2,3.2l-97,46.3
			C253.1,264.4,252.4,264.6,252,264.6z M255.5,141v114.6l90-43V98L255.5,141z M158.5,212.5l90,43V141l-90-43V212.5z M163.1,92.4
			l88.9,42.5l88.9-42.5L252,50L163.1,92.4z"/>
		<path class="st0" d="M395.8,337.1c-0.9,0-1.8-0.4-2.5-1l-55.4-55.4l-2.7,1.8C310.4,298.5,281.6,307,252,307
			c-29.6,0-58.4-8.5-83.2-24.5l-2.7-1.8l-55.4,55.4c-0.7,0.7-1.5,1-2.5,1c-0.9,0-1.8-0.4-2.5-1c-1.4-1.4-1.4-3.6,0-4.9l54.6-54.6
			l-3.5-2.8c-37-29.4-58.3-73.2-58.3-120.3C98.5,68.9,167.4,0,252,0c30.1,0,59.2,8.7,84.2,25.1c1.6,1.1,2.1,3.2,1,4.9
			c-0.6,1-1.7,1.6-2.9,1.6c-0.7,0-1.3-0.2-1.9-0.6C308.5,15.3,280.7,7,252,7c-80.8,0-146.5,65.7-146.5,146.5S171.2,300,252,300
			s146.5-65.7,146.5-146.5c0-39.4-15.4-76.4-43.4-104.1c-0.7-0.7-1-1.5-1-2.5c0-0.9,0.4-1.8,1-2.5c0.7-0.7,1.5-1,2.5-1
			c0.9,0,1.8,0.4,2.5,1c29.3,29.1,45.5,67.8,45.5,109.1c0,47.1-21.2,90.9-58.3,120.3l-3.5,2.8l54.6,54.6c1.4,1.4,1.4,3.6,0,5
			C397.6,336.8,396.8,337.1,395.8,337.1z"/>
		<path class="st0" d="M78.1,382.5c-1.9,0-3.5-1.6-3.5-3.5s1.6-3.5,3.5-3.5h30c1.9,0,3.5,1.6,3.5,3.5s-1.6,3.5-3.5,3.5H78.1z"/>
		<path class="st0" d="M396.5,382.5c-1.9,0-3.5-1.6-3.5-3.5s1.6-3.5,3.5-3.5h30c1.9,0,3.5,1.6,3.5,3.5s-1.6,3.5-3.5,3.5H396.5z"/>
	</g>
</g>
</svg>
