<?xml version="1.0" encoding="utf-8"?>
<!-- Generator: Adobe Illustrator 22.0.0, SVG Export Plug-In . SVG Version: 6.00 Build 0)  -->
<svg version="1.1" id="Isolation_Mode" xmlns="http://www.w3.org/2000/svg" xmlns:xlink="http://www.w3.org/1999/xlink" x="0px"
	 y="0px" viewBox="0 0 504.2 504.2" style="enable-background:new 0 0 504.2 504.2;" xml:space="preserve">
<style type="text/css">
	.st0{fill:#30B2F2;}
</style>
<g>
	<path class="st0" d="M204.1,307.7c-4.2,0-7.6-3.4-7.6-7.6v-96c0-4.2,3.4-7.6,7.6-7.6h48c2,0,3.6,1.6,3.6,3.6s-1.6,3.6-3.6,3.6
		h-48.4v96.8h96.8v-96.8h-16.4c-2,0-3.6-1.6-3.6-3.6s1.6-3.6,3.6-3.6h16c4.2,0,7.6,3.4,7.6,7.6v96c0,4.2-3.4,7.6-7.6,7.6H204.1z"/>
	<path class="st0" d="M204.1,307.6c-4.1,0-7.5-3.4-7.5-7.5v-96c0-4.1,3.4-7.5,7.5-7.5h48c1.9,0,3.5,1.6,3.5,3.5s-1.6,3.5-3.5,3.5
		h-48.5v97h97v-97h-16.5c-1.9,0-3.5-1.6-3.5-3.5s1.6-3.5,3.5-3.5h16c4.1,0,7.5,3.4,7.5,7.5v96c0,4.1-3.4,7.5-7.5,7.5H204.1z"/>
	<path class="st0" d="M37.6,97.2c-4.2,0-7.6-3.4-7.6-7.6v-52c0-4.2,3.4-7.6,7.6-7.6h52c4.2,0,7.6,3.4,7.6,7.6v52
		c0,4.2-3.4,7.6-7.6,7.6H37.6z M90,90V37.2H37.2V90H90z"/>
	<path class="st0" d="M37.6,97.1c-4.1,0-7.5-3.4-7.5-7.5v-52c0-4.1,3.4-7.5,7.5-7.5h52c4.1,0,7.5,3.4,7.5,7.5v52
		c0,4.1-3.4,7.5-7.5,7.5H37.6z M37.1,90.1h53v-53h-53V90.1z"/>
	<path class="st0" d="M86.1,463.1"/>
	<path class="st0" d="M86.1,463.1"/>
	<path class="st0" d="M86.1,463.1"/>
	<path class="st0" d="M86.1,463.1"/>
	<path class="st0" d="M86.1,463.1"/>
	<path class="st0" d="M86.1,463.1"/>
	<path class="st0" d="M86.1,463.1"/>
	<path class="st0" d="M86.1,463.1"/>
	<path class="st0" d="M37.6,474.2c-4.2,0-7.6-3.4-7.6-7.6v-52c0-4.2,3.4-7.6,7.6-7.6h52c4.2,0,7.6,3.4,7.6,7.6v52
		c0,4.2-3.4,7.6-7.6,7.6H37.6z M90,467v-52.8H37.2V467H90z"/>
	<path class="st0" d="M37.6,474.1c-4.1,0-7.5-3.4-7.5-7.5v-52c0-4.1,3.4-7.5,7.5-7.5h52c4.1,0,7.5,3.4,7.5,7.5v52
		c0,4.1-3.4,7.5-7.5,7.5H37.6z M37.1,467.1h53v-53h-53V467.1z"/>
	<path class="st0" d="M392.6,504.2c-8.6,0-15.6-7-15.6-15.6V444c0-2,1.6-3.6,3.6-3.6s3.6,1.6,3.6,3.6v44.6c0,4.6,3.8,8.4,8.4,8.4h96
		c4.6,0,8.4-3.8,8.4-8.4v-96c0-4.6-3.8-8.4-8.4-8.4h-96c-4.6,0-8.4,3.8-8.4,8.4v19.5c0,2-1.6,3.6-3.6,3.6s-3.6-1.6-3.6-3.6v-19.5
		c0-8.6,7-15.6,15.6-15.6H437V263.1h-99.3v55c0,10.8-8.8,19.6-19.6,19.6h-31.4v39.9l2.6,0.9c7.4,2.6,12.4,9.7,12.4,17.5
		c0,10.3-8.3,18.6-18.6,18.6s-18.6-8.3-18.6-18.6c0-7.9,5-14.9,12.4-17.5l2.6-0.9v-39.9h-48.8v100.5c0,2-1.6,3.6-3.6,3.6h-99.9v46.8
		c0,8.6-7,15.6-15.6,15.6h-96c-8.6,0-15.6-7-15.6-15.6v-96C0,384,7,377,15.6,377h96c8.6,0,15.6,7,15.6,15.6v42h96.3v-96.9h-37.4
		c-10.8,0-19.6-8.8-19.6-19.6v-30.4h-16.9l-0.9,2.6c-2.6,7.4-9.7,12.4-17.5,12.4c-10.3,0-18.6-8.3-18.6-18.6s8.3-18.6,18.6-18.6
		c7.9,0,14.9,5,17.5,12.4l0.9,2.6h16.9v-39.8H63.6c-2,0-3.6-1.6-3.6-3.6V127.2H15.6c-8.6,0-15.6-7-15.6-15.6v-96C0,7,7,0,15.6,0h96
		c8.6,0,15.6,7,15.6,15.6v44.5c0,2-1.6,3.6-3.6,3.6s-3.6-1.6-3.6-3.6V15.6c0-4.6-3.8-8.4-8.4-8.4h-96c-4.6,0-8.4,3.8-8.4,8.4v96
		c0,4.6,3.8,8.4,8.4,8.4h96c4.6,0,8.4-3.8,8.4-8.4V92.1c0-2,1.6-3.6,3.6-3.6s3.6,1.6,3.6,3.6v19.5c0,8.6-7,15.6-15.6,15.6H67.2
		v106.3h99.3v-47.4c0-10.8,8.8-19.6,19.6-19.6h37.4v-35.9l-2.6-0.9c-7.4-2.6-12.4-9.7-12.4-17.5c0-10.3,8.3-18.6,18.6-18.6
		s18.6,8.3,18.6,18.6c0,7.9-5,14.9-12.4,17.5l-2.6,0.9v35.9h48.8V63.6c0-2,1.6-3.6,3.6-3.6H377V15.6C377,7,384,0,392.6,0h96
		c8.6,0,15.6,7,15.6,15.6v96c0,8.6-7,15.6-15.6,15.6h-96c-8.6,0-15.6-7-15.6-15.6V67.2h-90.3v99.3h31.4c10.8,0,19.6,8.8,19.6,19.6
		v29.4h42.4l0.9-2.6c2.6-7.4,9.7-12.4,17.5-12.4c10.3,0,18.6,8.3,18.6,18.6s-8.3,18.6-18.6,18.6c-7.9,0-14.9-5-17.5-12.4l-0.9-2.6
		h-42.4v33.2h102.9c2,0,3.6,1.6,3.6,3.6V377h44.4c8.6,0,15.6,7,15.6,15.6v96c0,8.6-7,15.6-15.6,15.6H392.6z M15.6,384.2
		c-4.6,0-8.4,3.8-8.4,8.4v96c0,4.6,3.8,8.4,8.4,8.4h96c4.6,0,8.4-3.8,8.4-8.4v-96c0-4.6-3.8-8.4-8.4-8.4H15.6z M283.1,384.7
		c-6.3,0-11.4,5.1-11.4,11.4s5.1,11.4,11.4,11.4s11.4-5.1,11.4-11.4S289.4,384.7,283.1,384.7z M186.1,173.7
		c-6.8,0-12.4,5.6-12.4,12.4v132c0,6.8,5.6,12.4,12.4,12.4h132c6.8,0,12.4-5.6,12.4-12.4v-132c0-6.8-5.6-12.4-12.4-12.4H186.1z
		 M131.1,272.7c-6.3,0-11.4,5.1-11.4,11.4s5.1,11.4,11.4,11.4s11.4-5.1,11.4-11.4S137.4,272.7,131.1,272.7z M398.5,207.7
		c-6.3,0-11.4,5.1-11.4,11.4s5.1,11.4,11.4,11.4s11.4-5.1,11.4-11.4S404.8,207.7,398.5,207.7z M227.1,100.7
		c-6.3,0-11.4,5.1-11.4,11.4s5.1,11.4,11.4,11.4s11.4-5.1,11.4-11.4S233.4,100.7,227.1,100.7z M392.6,7.2c-4.6,0-8.4,3.8-8.4,8.4
		v47.9l0,0.1l0,0.1v47.9c0,4.6,3.8,8.4,8.4,8.4h96c4.6,0,8.4-3.8,8.4-8.4v-96c0-4.6-3.8-8.4-8.4-8.4H392.6z"/>
	<path class="st0" d="M392.6,504.1c-8.5,0-15.5-7-15.5-15.5V444c0-1.9,1.6-3.5,3.5-3.5s3.5,1.6,3.5,3.5v44.6c0,4.7,3.8,8.5,8.5,8.5
		h96c4.7,0,8.5-3.8,8.5-8.5v-96c0-4.7-3.8-8.5-8.5-8.5h-96c-4.7,0-8.5,3.8-8.5,8.5v19.5c0,1.9-1.6,3.5-3.5,3.5s-3.5-1.6-3.5-3.5
		v-19.5c0-8.5,7-15.5,15.5-15.5h44.5V263h-99.5v55.1c0,10.7-8.7,19.5-19.5,19.5h-31.5v40.1l2.7,0.9c7.4,2.6,12.3,9.6,12.3,17.4
		c0,10.2-8.3,18.5-18.5,18.5s-18.5-8.3-18.5-18.5c0-7.8,5-14.8,12.3-17.4l2.7-0.9v-40.1h-49v100.6c0,1.9-1.6,3.5-3.5,3.5h-100v46.9
		c0,8.5-7,15.5-15.5,15.5h-96c-8.5,0-15.5-7-15.5-15.5v-96c0-8.5,7-15.5,15.5-15.5h96c8.5,0,15.5,7,15.5,15.5v42.1h96.5v-97.1h-37.5
		c-10.7,0-19.5-8.7-19.5-19.5v-30.5h-17.1l-0.9,2.7c-2.6,7.4-9.6,12.3-17.4,12.3c-10.2,0-18.5-8.3-18.5-18.5s8.3-18.5,18.5-18.5
		c7.8,0,14.8,5,17.4,12.3l0.9,2.7h17.1v-40h-103c-1.9,0-3.5-1.6-3.5-3.5v-110H15.6c-8.5,0-15.5-7-15.5-15.5v-96
		c0-8.5,7-15.5,15.5-15.5h96c8.5,0,15.5,7,15.5,15.5v44.5c0,1.9-1.6,3.5-3.5,3.5s-3.5-1.6-3.5-3.5V15.6c0-4.7-3.8-8.5-8.5-8.5h-96
		c-4.7,0-8.5,3.8-8.5,8.5v96c0,4.7,3.8,8.5,8.5,8.5h96c4.7,0,8.5-3.8,8.5-8.5V92.1c0-1.9,1.6-3.5,3.5-3.5s3.5,1.6,3.5,3.5v19.5
		c0,8.5-7,15.5-15.5,15.5H67.1v106.5h99.5v-47.5c0-10.7,8.7-19.5,19.5-19.5h37.5v-36.1l-2.7-0.9c-7.4-2.6-12.3-9.6-12.3-17.4
		c0-10.2,8.3-18.5,18.5-18.5s18.5,8.3,18.5,18.5c0,7.8-5,14.8-12.3,17.4l-2.7,0.9v36.1h49v-103c0-1.9,1.6-3.5,3.5-3.5h94V15.6
		c0-8.5,7-15.5,15.5-15.5h96c8.5,0,15.5,7,15.5,15.5v96c0,8.5-7,15.5-15.5,15.5h-96c-8.5,0-15.5-7-15.5-15.5V67.1h-90.5v99.5h31.5
		c10.7,0,19.5,8.7,19.5,19.5v29.5h42.6l0.9-2.7c2.6-7.4,9.6-12.3,17.4-12.3c10.2,0,18.5,8.3,18.5,18.5s-8.3,18.5-18.5,18.5
		c-7.8,0-14.8-5-17.4-12.3l-0.9-2.7h-42.6V256h103c1.9,0,3.5,1.6,3.5,3.5v117.6h44.5c8.5,0,15.5,7,15.5,15.5v96
		c0,8.5-7,15.5-15.5,15.5H392.6z M15.6,384.1c-4.7,0-8.5,3.8-8.5,8.5v96c0,4.7,3.8,8.5,8.5,8.5h96c4.7,0,8.5-3.8,8.5-8.5v-96
		c0-4.7-3.8-8.5-8.5-8.5H15.6z M283.1,384.6c-6.3,0-11.5,5.2-11.5,11.5s5.2,11.5,11.5,11.5s11.5-5.2,11.5-11.5
		S289.4,384.6,283.1,384.6z M186.1,173.6c-6.9,0-12.5,5.6-12.5,12.5v132c0,6.9,5.6,12.5,12.5,12.5h132c6.9,0,12.5-5.6,12.5-12.5
		v-132c0-6.9-5.6-12.5-12.5-12.5H186.1z M131.1,272.6c-6.3,0-11.5,5.2-11.5,11.5s5.2,11.5,11.5,11.5s11.5-5.2,11.5-11.5
		S137.4,272.6,131.1,272.6z M398.5,207.6c-6.3,0-11.5,5.2-11.5,11.5s5.2,11.5,11.5,11.5s11.5-5.2,11.5-11.5S404.9,207.6,398.5,207.6
		z M227.1,100.6c-6.3,0-11.5,5.2-11.5,11.5s5.2,11.5,11.5,11.5s11.5-5.2,11.5-11.5S233.4,100.6,227.1,100.6z M384.1,63.7v47.9
		c0,4.7,3.8,8.5,8.5,8.5h96c4.7,0,8.5-3.8,8.5-8.5v-96c0-4.7-3.8-8.5-8.5-8.5h-96c-4.7,0-8.5,3.8-8.5,8.5v47.9V63.7L384.1,63.7z"/>
	<path class="st0" d="M414.6,97.2c-4.2,0-7.6-3.4-7.6-7.6v-52c0-4.2,3.4-7.6,7.6-7.6h52c4.2,0,7.6,3.4,7.6,7.6v52
		c0,4.2-3.4,7.6-7.6,7.6H414.6z M467,90V37.2h-52.8V90H467z"/>
	<path class="st0" d="M414.6,97.1c-4.1,0-7.5-3.4-7.5-7.5v-52c0-4.1,3.4-7.5,7.5-7.5h52c4.1,0,7.5,3.4,7.5,7.5v52
		c0,4.1-3.4,7.5-7.5,7.5H414.6z M414.1,90.1h53v-53h-53V90.1z"/>
	<path class="st0" d="M414.6,474.2c-4.2,0-7.6-3.4-7.6-7.6v-52c0-4.2,3.4-7.6,7.6-7.6h52c4.2,0,7.6,3.4,7.6,7.6v52
		c0,4.2-3.4,7.6-7.6,7.6H414.6z M467,467v-52.8h-52.8V467H467z"/>
	<path class="st0" d="M414.6,474.1c-4.1,0-7.5-3.4-7.5-7.5v-52c0-4.1,3.4-7.5,7.5-7.5h52c4.1,0,7.5,3.4,7.5,7.5v52
		c0,4.1-3.4,7.5-7.5,7.5H414.6z M414.1,467.1h53v-53h-53V467.1z"/>
</g>
</svg>
